<svg width="32" height="32" viewBox="0 0 32 32" fill="none" xmlns="http://www.w3.org/2000/svg">
<path fill-rule="evenodd" clip-rule="evenodd" d="M30.4801 6.85002C29.5501 7.27002 28.5301 7.52002 27.5301 7.69002C28.0001 7.61002 28.7101 6.75002 28.9801 6.40002C29.4101 5.87002 29.7601 5.27002 29.9601 4.61002C29.9901 4.56002 30.0001 4.49002 29.9601 4.46002C29.9001 4.43002 29.8501 4.45002 29.8001 4.47002C28.6801 5.07002 27.5301 5.50002 26.3001 5.81002C26.2001 5.84002 26.1201 5.81002 26.0601 5.75002C25.9601 5.64002 25.8601 5.53002 25.7501 5.44002C24.5101 4.38002 22.9201 3.90002 21.3501 4.01002C21.3501 4.01002 21.3601 4.01002 21.3701 4.01002H21.2501C21.2501 4.01002 21.2801 4.01002 21.2901 4.02002C20.4201 4.09002 19.5601 4.34002 18.7701 4.79002C16.4701 6.09002 15.3601 8.64002 15.7401 11.2C15.7601 11.34 15.7401 11.36 15.6201 11.34C10.8101 10.62 6.82012 8.90002 3.59012 5.21002C3.45012 5.05002 3.37012 5.05002 3.26012 5.22002C1.84012 7.34002 2.53012 10.75 4.30012 12.43C4.54012 12.65 4.78012 12.88 5.04012 13.08C4.94012 13.1 3.77012 12.97 2.72012 12.43C2.58012 12.34 2.51012 12.39 2.50012 12.55C2.49012 12.78 2.50012 12.99 2.54012 13.24C2.81012 15.39 4.30012 17.38 6.34012 18.16C6.58012 18.26 6.85012 18.35 7.11012 18.4C6.65012 18.5 6.17012 18.57 4.83012 18.47C4.66012 18.44 4.60012 18.52 4.66012 18.68C5.66012 21.41 7.83012 22.22 9.45012 22.69C9.67012 22.73 9.88012 22.73 10.1001 22.78C10.0901 22.8 10.0701 22.8 10.0601 22.82C9.52012 23.64 7.66012 24.25 6.79012 24.55C5.21012 25.1 3.49012 25.35 1.83012 25.19C1.56012 25.15 1.51012 25.15 1.43012 25.19C1.36012 25.24 1.43012 25.3 1.51012 25.37C1.85012 25.59 2.19012 25.79 2.54012 25.98C3.60012 26.54 4.70012 26.99 5.86012 27.31C12.5701 29.16 19.9501 27.28 24.2601 21.65C26.7901 18.35 27.7701 14.27 27.7701 10.17C27.7701 9.98002 27.9901 9.88002 28.1301 9.78002C29.0401 9.09002 29.7701 8.27002 30.4501 7.35002C30.6001 7.14002 30.5901 6.96002 30.5901 6.88002V6.85002C30.5901 6.77002 30.5901 6.80002 30.4801 6.85002Z" fill="#F5F5F5"/>
</svg>
