<svg width="32" height="32" viewBox="0 0 32 32" fill="none" xmlns="http://www.w3.org/2000/svg">
<path fill-rule="evenodd" clip-rule="evenodd" d="M15.71 4.03009C9.76 4.44009 5.01 9.38009 4.82 15.3401C4.74 17.7501 5.39 20.0801 6.69 22.0801L3.75 28.0001C3.84 28.0001 11.02 26.0601 11.02 26.0601C12.71 26.9701 14.61 27.4401 16.54 27.4401C23 27.4401 28.26 22.1801 28.26 15.7201C28.26 9.26009 22.55 3.56009 15.71 4.03009ZM16.53 25.4001C14.82 25.4001 13.13 24.9401 11.66 24.0801C11.5 23.9901 11.29 23.8401 11.29 23.8401C11.29 23.8401 10.96 23.9501 10.87 23.9701L7.66 24.8501L9.03 21.8301C7.48 19.9201 6.72 17.5601 6.87 15.1001C7.16 10.3001 11.04 6.39009 15.84 6.06009C21.48 5.67009 26.2 10.1501 26.2 15.7101C26.2 21.2701 21.86 25.3901 16.52 25.3901L16.53 25.4001Z" fill="#F5F5F5"/>
<path fill-rule="evenodd" clip-rule="evenodd" d="M21.0401 17.4799C20.5501 17.1899 19.9101 16.8599 19.3301 17.0999C18.8901 17.2799 18.6001 17.9799 18.3201 18.3299C18.1701 18.5099 18.0001 18.5399 17.7701 18.4499C16.1001 17.7899 14.8301 16.6699 13.9101 15.1399C13.7501 14.8999 13.7801 14.7099 13.9701 14.4899C14.2501 14.1599 14.6001 13.7899 14.6701 13.3499C14.7501 12.9099 14.5401 12.3899 14.3601 11.9999C14.1301 11.4999 13.8701 10.7799 13.3701 10.4999C12.9101 10.2399 12.3001 10.3899 11.8901 10.7199C11.1801 11.2999 10.8401 12.1999 10.8501 13.0999C10.8501 13.3599 10.8801 13.6099 10.9401 13.8599C11.4401 15.9099 12.8501 17.6399 14.5001 18.8899C15.9201 19.9699 18.2701 21.4299 20.1401 21.0799C21.0501 20.9099 21.9401 20.3499 22.3001 19.4699C22.4101 19.2099 22.4601 18.9199 22.4001 18.6499C22.2801 18.0899 21.5101 17.7499 21.0501 17.4799H21.0401Z" fill="#F5F5F5"/>
</svg>
